<svg id="Layer_1" data-name="Layer 1" xmlns="http://www.w3.org/2000/svg" xmlns:xlink="http://www.w3.org/1999/xlink" viewBox="0 0 123.76 141.94"><defs><style>.cls-1{fill:url(#Dégradé_sans_nom_53);}.cls-2{fill:url(#Dégradé_sans_nom_14);}.cls-3{fill:url(#Dégradé_sans_nom_466);}.cls-4{fill:#ee393f;}.cls-5{fill:url(#Dégradé_sans_nom_117);}.cls-6{fill:url(#Dégradé_sans_nom_466-2);}.cls-7{fill:url(#Dégradé_sans_nom_117-2);}.cls-8{fill:url(#Dégradé_sans_nom_328);}.cls-9{fill:url(#Dégradé_sans_nom_117-3);}.cls-10{fill:url(#Dégradé_sans_nom_328-2);}.cls-11{fill:url(#Dégradé_sans_nom_117-4);}.cls-12{fill:url(#Dégradé_sans_nom_213);}.cls-13{fill:url(#Dégradé_sans_nom_195);}</style><linearGradient id="Dégradé_sans_nom_53" x1="109.31" y1="104.61" x2="3.78" y2="104.61" gradientUnits="userSpaceOnUse"><stop offset="0" stop-color="#66c8ce"/><stop offset="0" stop-color="#63c4cf"/><stop offset="0.09" stop-color="#61c1cf"/><stop offset="0.5" stop-color="#33a3dc"/><stop offset="0.67" stop-color="#3184c4"/><stop offset="1" stop-color="#2a3790"/></linearGradient><linearGradient id="Dégradé_sans_nom_14" x1="18.82" y1="72.97" x2="127.54" y2="72.97" gradientUnits="userSpaceOnUse"><stop offset="0.03" stop-color="#66c8ce"/><stop offset="0.44" stop-color="#33a3dc"/><stop offset="0.66" stop-color="#3082c6"/><stop offset="1" stop-color="#293794"/></linearGradient><linearGradient id="Dégradé_sans_nom_466" x1="60.81" y1="45.78" x2="70.76" y2="45.78" gradientUnits="userSpaceOnUse"><stop offset="0" stop-color="#fff"/><stop offset="0.07" stop-color="#fdede5"/><stop offset="0.41" stop-color="#ec1c24"/><stop offset="1" stop-color="#be1e2d"/></linearGradient><linearGradient id="Dégradé_sans_nom_117" x1="61.35" y1="36.77" x2="77.45" y2="36.77" gradientUnits="userSpaceOnUse"><stop offset="0" stop-color="#fff"/><stop offset="0.35" stop-color="#ed3029"/><stop offset="0.37" stop-color="#ec1c24"/><stop offset="1" stop-color="#be1e2d"/></linearGradient><linearGradient id="Dégradé_sans_nom_466-2" x1="65.79" y1="39.06" x2="65.79" y2="52.87" xlink:href="#Dégradé_sans_nom_466"/><linearGradient id="Dégradé_sans_nom_117-2" x1="60.81" y1="36.3" x2="76.91" y2="36.3" xlink:href="#Dégradé_sans_nom_117"/><linearGradient id="Dégradé_sans_nom_328" x1="55.82" y1="38.76" x2="55.82" y2="56.01" gradientUnits="userSpaceOnUse"><stop offset="0" stop-color="#fff"/><stop offset="0.02" stop-color="#fdede5"/><stop offset="0.29" stop-color="#ec1c24"/><stop offset="1" stop-color="#be1e2d"/></linearGradient><linearGradient id="Dégradé_sans_nom_117-3" x1="60.17" y1="36.77" x2="44.06" y2="36.77" xlink:href="#Dégradé_sans_nom_117"/><linearGradient id="Dégradé_sans_nom_328-2" x1="55.83" y1="38.95" x2="55.83" y2="57.08" xlink:href="#Dégradé_sans_nom_328"/><linearGradient id="Dégradé_sans_nom_117-4" x1="60.8" y1="36.3" x2="44.69" y2="36.3" xlink:href="#Dégradé_sans_nom_117"/><linearGradient id="Dégradé_sans_nom_213" x1="62.6" y1="39.17" x2="62.6" y2="21.84" gradientUnits="userSpaceOnUse"><stop offset="0" stop-color="#fff"/><stop offset="0.02" stop-color="#fdede5"/><stop offset="0.38" stop-color="#ec1c24"/><stop offset="0.92" stop-color="#be1e2d"/></linearGradient><linearGradient id="Dégradé_sans_nom_195" x1="59.01" y1="39.2" x2="59.01" y2="19.91" gradientUnits="userSpaceOnUse"><stop offset="0" stop-color="#fff"/><stop offset="0.38" stop-color="#ec1c24"/><stop offset="0.92" stop-color="#be1e2d"/></linearGradient></defs><title>logo_altair_solutions</title><path class="cls-1" d="M17.63,75.36c5.26-2.07,21.77-9.33,33.57-10,19.29-.56,33.88,6,47,15.86H86.52S68.74,71,64.19,71.78c.48,10.12,2.83,7.41,18.26,9.4a173.93,173.93,0,0,0-32.37,8.38,223.07,223.07,0,0,1,23.1-2.63c5.29-1.44,16.85-4,19.32-2.24,3.91,2.48,21,12.12,15.87,20.58-4.31-2.48-12-9.73-31.5-8.78-9.41,1.6-26.95,3.14-41.2,28-5,9.19-9.25,18.28-10.52,19.48-6.17-.51-26.9-2.42-18.82-16.56C15.05,115.05,21.64,113,24,110.48c-10,4.19-19.14,12.49-20.2,14.93,1-4.78,4.57-18.18,4.57-18.76,2.07-2,11.7-12.23,26.31-18-8.77.9-16.26,6.27-25,13.66,2.12-8.13,4.09-14,4.09-14A15.21,15.21,0,0,0,18,83.2,15.21,15.21,0,0,1,14.68,85C15.47,82.19,17.63,75.36,17.63,75.36Z" transform="translate(-3.78 -2)"/><path class="cls-2" d="M95.13,18.19c-.66-2.16-.64-4.94-4.86-9.09C71.37-4.45,45,5,39.4,8.31L24.25,54.07s-4,13.16-5.43,17.23C46,59.82,61.64,63.8,68.18,64.73c19.7,4.33,35.16,18,35.16,18s-4.14.16-8,.08c.48.16,2.15,1.43,1.6,2.39,2.07,1.12,8.85,5.9,10.2,7.5C114,98,111.4,107,108.85,108.3c-4.63-4.55-11.41-8.62-28.39-9.89.24,2.15,6,24.4,7,29.1,2.47,14.91,12.92,16,15.47,16.11s17,2.23,24.59-6.7C128,134.16,96.17,20.82,95.13,18.19ZM77.46,57.47,64.74,48.34,51.58,57.47l5.05-14.62L43.91,33.92H59.65l5.09-14.58,5,14.58H85.94L72.67,43Z" transform="translate(-3.78 -2)"/><polygon class="cls-3" points="66.62 40.35 66.33 40.3 60.81 39.38 60.81 39.39 61.52 40.3 70.76 52.17 66.62 40.35"/><polygon class="cls-4" points="66.62 40.35 66.69 40.3 66.33 40.3 66.62 40.35"/><polygon class="cls-4" points="60.81 39.38 60.8 39.38 60.81 39.39 60.81 39.38"/><polygon class="cls-5" points="60.81 39.38 66.33 40.3 66.69 40.3 76.91 33.23 60.81 39.38 60.81 39.38"/><polygon class="cls-4" points="60.81 39.37 60.8 39.38 60.81 39.38 60.81 39.37"/><polygon class="cls-4" points="60.81 39.38 60.8 39.38 60.81 39.38 60.81 39.38"/><polygon class="cls-6" points="61.52 40.3 60.81 39.39 60.81 40.3 60.81 44.58 70.76 52.17 61.52 40.3"/><polygon class="cls-7" points="60.81 39.38 76.91 33.23 64.4 33.52 60.81 39.37 60.81 39.38"/><polygon class="cls-8" points="55.27 40.3 54.99 40.35 50.85 52.17 60.09 40.3 60.8 39.38 55.27 40.3"/><polygon class="cls-9" points="60.8 39.38 44.69 33.23 54.92 40.3 55.27 40.3 60.8 39.38"/><polygon class="cls-10" points="60.8 39.38 60.09 40.3 50.85 52.17 60.8 44.58 60.81 44.58 60.81 40.3 60.81 39.39 60.8 39.38"/><polygon class="cls-4" points="54.92 40.3 54.99 40.35 55.27 40.3 54.92 40.3"/><polygon class="cls-11" points="57.21 33.52 44.69 33.23 60.8 39.38 57.21 33.52"/><polygon class="cls-4" points="60.81 39.37 60.81 21.55 60.8 21.52 60.8 39.38 60.81 39.37"/><polygon class="cls-12" points="64.4 33.52 60.81 21.55 60.81 39.37 64.4 33.52"/><polygon class="cls-13" points="60.8 21.52 57.21 33.52 60.8 39.38 60.8 21.52"/></svg>